<svg width="136.913" height="136.914" xmlns="http://www.w3.org/2000/svg">

 <g>
  <title>background</title>
  <rect fill="none" id="canvas_background" height="402" width="582" y="-1" x="-1"/>
 </g>
 <g>
  <title>Layer 1</title>
  <g id="svg_1">
   <g id="svg_2">
    <g id="svg_3">
     <g id="svg_4">
      <g id="svg_5">
       <circle id="svg_6" r="63.333" cy="68.456" cx="68.456" fill="#D35387"/>
      </g>
     </g>
    </g>
   </g>
   <g id="svg_7">
    <g id="svg_8">
     <path id="svg_9" d="m76.771,105.904c-2.031,-5.91 -3.182,-7.449 -7.041,-7.449c-3.809,0 -5.131,1.954 -7.037,7.449c-6.502,0.63 -11.064,2.107 -11.064,3.828c0,2.295 8.104,4.154 18.102,4.154s18.104,-1.859 18.104,-4.154c-0.001,-1.72 -4.564,-3.197 -11.064,-3.828z" fill="#505251"/>
    </g>
    <g id="svg_10">
     <g id="svg_11">
      <path id="svg_12" d="m115.543,95.147c0,3.024 -2.451,5.476 -5.475,5.476c0,0 -22.531,3.174 -41.525,3.174c-14.541,0 -39.25,-3.174 -39.25,-3.174c-3.025,0 -5.477,-2.451 -5.477,-5.476l0,-54.078c0,-3.024 2.451,-5.476 5.477,-5.476l80.775,0c3.023,0 5.475,2.451 5.475,5.476l0,54.078z" fill="#3D4040"/>
     </g>
    </g>
    <g id="svg_13">
     <rect id="svg_14" height="56.905" width="84.135" fill="#5DC0C1" y="39.547" x="27.516"/>
    </g>
    <g id="svg_15">
     <circle id="svg_16" r="4.384" cy="69.302" cx="52.655" fill="#FDF2F7"/>
    </g>
    <g id="svg_17">
     <circle id="svg_18" r="4.383" cy="61.84" cx="74.76" fill="#FDF2F7"/>
    </g>
    <g id="svg_19">
     <circle id="svg_20" r="4.384" cy="51.954" cx="96.585" fill="#FDF2F7"/>
    </g>
    <g id="svg_21">
     <g id="svg_22">
      <g id="svg_23">
       <path id="svg_24" d="m111.449,43.433c-3.805,-0.975 -6.607,2.007 -10.156,5.777c-0.256,0.272 -0.518,0.55 -0.783,0.829c0.285,0.581 0.459,1.226 0.459,1.915c0,2.42 -1.965,4.383 -4.385,4.383c-0.805,0 -1.549,-0.232 -2.197,-0.61c-3.787,2.894 -8.578,5.292 -15.248,5.901c-0.004,0 -0.012,0.002 -0.016,0.002c0.002,0.071 0.02,0.138 0.02,0.21c0,2.421 -1.963,4.384 -4.383,4.384c-1.922,0 -3.537,-1.245 -4.129,-2.965c-2.494,0.593 -4.971,1.234 -6.881,1.73l-1.699,0.438c-2.07,0.528 -3.936,1.048 -5.646,1.634c0.395,0.657 0.635,1.418 0.635,2.241c0,2.42 -1.963,4.383 -4.383,4.383c-1.789,0 -3.322,-1.074 -4.004,-2.609c-3.043,2.377 -5.748,5.784 -8.723,11.139c-2.1,3.777 -4.326,5.69 -6.621,5.69c-0.047,0 -0.092,0 -0.137,-0.002c-2.863,-0.094 -4.896,-3.127 -5.656,-4.464l0,13.014l84.135,0l0,-52.962l-0.202,-0.058z" fill="#357180"/>
      </g>
      <g id="svg_25">
       <g id="svg_26">
        <path id="svg_27" d="m27.506,81.496l0,1.956c0.76,1.338 2.844,4.384 5.709,4.478c0.045,0.002 0.09,0.003 0.135,0.003c2.295,0 4.521,-1.914 6.621,-5.69c6.533,-11.756 11.758,-14.143 22.123,-16.789l1.697,-0.438c4.355,-1.129 11.648,-3.018 15.391,-3.361c11.447,-1.046 17.383,-7.351 22.152,-12.417c3.551,-3.771 6.5,-6.748 10.305,-5.774l-0.006,-0.871c-4.307,-1.101 -7.195,2.051 -10.945,6.035c-4.668,4.957 -10.477,11.126 -21.588,12.141c-3.814,0.35 -11.148,2.25 -15.531,3.387l-1.695,0.437c-10.623,2.711 -15.979,5.159 -22.68,17.218c-1.965,3.535 -3.969,5.303 -5.949,5.231c-3.055,-0.099 -5.189,-4.531 -5.211,-4.576l-0.528,-0.97z" fill="#FDF7FA"/>
       </g>
       <g id="svg_28">
        <polygon id="svg_29" points="27.516,83.438 27.516,83.438 27.512,83.43       " fill="#FDF7FA"/>
       </g>
      </g>
     </g>
    </g>
   </g>
  </g>
  <path id="svg_30" d="m-324.043488,-595.54303" opacity="0.5" stroke-width="1.5" stroke="#2DB58E" fill="none"/>
  <path stroke="null" id="svg_31" d="m11.841731,68.289684l0,0c0,-28.718809 25.743626,-52.000003 57.500005,-52.000003l0,0c15.249942,0 29.875291,5.478556 40.658637,15.230448c10.783342,9.751892 16.841353,22.978299 16.841353,36.769555l0,0c0,28.718802 -25.743623,51.999996 -57.49999,51.999996l0,0c-31.756378,0 -57.500005,-23.281197 -57.500005,-51.999996zm57.500005,-52.000003l0,103.999999m-57.500005,-51.999996l114.999994,0" stroke-width="1.5" fill="#D35387"/>
 </g>
</svg>