<svg width="136.913" height="136.914" xmlns="http://www.w3.org/2000/svg" xmlns:xlink="http://www.w3.org/1999/xlink">
 <g>
  <title>background</title>
  <rect fill="none" id="canvas_background" height="402" width="582" y="-1" x="-1"/>
 </g>
 <g>
  <title>Layer 1</title>
  <g id="svg_1">
   <g id="svg_2">
    <g id="svg_3">
     <g id="svg_4">
      <circle id="svg_5" r="63.333" cy="68.458" cx="68.456" fill="#EDBF00"/>
     </g>
    </g>
   </g>
   <g id="svg_6">
    <g id="svg_7">
     <path id="svg_8" d="m93.348,106.704c0,5.815 -2.084,7.897 -7.898,7.897l-31.593,0c-5.816,0 -7.898,-2.082 -7.898,-7.897l0,-73.715c0,-5.815 2.082,-7.897 7.898,-7.897l31.592,0c5.814,0 7.898,2.082 7.898,7.897l0,73.715l0.001,0z" fill="#F3F4F5"/>
     <rect id="svg_9" height="71.521" width="42.781" fill="url(#SVGID_1_)" y="33.647" x="48.152"/>
     <g id="svg_10">
      <path id="svg_11" d="m53.074,63.195l33.264,0c0.816,0 1.475,-0.66 1.475,-1.474l0,-5.349l-2.754,-2.754c0,0 -1.564,-2.017 -3.018,-1.935c-1.311,0.075 -2.836,1.713 -3.129,2.037l-1.832,-1.83c0,0 -1.832,-2.363 -3.537,-2.269c-1.705,0.098 -3.74,2.472 -3.74,2.472l-0.557,0.558l-3.447,-3.448c0,0 -2.254,-2.904 -4.35,-2.786c-2.092,0.118 -4.596,3.034 -4.596,3.034l-5.256,5.256l0,7.016c0.001,0.812 0.663,1.472 1.477,1.472z" fill="#6CC077"/>
      <path id="svg_12" d="m61.449,46.416c2.096,-0.118 4.35,2.786 4.35,2.786l3.447,3.448l0.557,-0.558c0,0 2.035,-2.374 3.74,-2.472c1.705,-0.095 3.537,2.269 3.537,2.269l1.832,1.832c0.293,-0.324 1.818,-1.962 3.129,-2.037c1.453,-0.082 3.018,1.935 3.018,1.935l2.754,2.754l0,-13.875c0,-0.815 -0.658,-1.477 -1.475,-1.477l-33.264,0c-0.814,0 -1.477,0.661 -1.477,1.477l0,12.208l5.256,-5.256c0.001,0 2.504,-2.916 4.596,-3.034z" fill="#DBF0F5"/>
     </g>
     <path id="svg_13" d="m74.385,28.089c0,0.333 -0.391,0.6 -0.871,0.6l-7.719,0c-0.482,0 -0.873,-0.267 -0.873,-0.6l0,0c0,-0.33 0.391,-0.599 0.873,-0.599l7.719,0c0.48,0 0.871,0.269 0.871,0.599l0,0z" fill="#B8B9BA"/>
     <g id="svg_14">
      <circle id="svg_15" r="1.206" cy="88.575" cx="69.64" fill="#FFFFFF"/>
      <circle id="svg_16" r="0.768" cy="88.575" cx="74.027" fill="#FFFFFF"/>
      <circle id="svg_17" r="0.768" cy="88.575" cx="77.537" fill="#FFFFFF"/>
      <circle id="svg_18" r="0.769" cy="88.575" cx="61.741" fill="#FFFFFF"/>
      <circle id="svg_19" r="0.768" cy="88.575" cx="65.252" fill="#FFFFFF"/>
     </g>
     <rect id="svg_20" height="3.585" width="42.762" fill="#202121" opacity="0.5" y="33.647" x="48.152"/>
     <circle id="svg_21" r="0.913" cy="35.33" cx="84.517" fill="#FFFFFF"/>
     <circle id="svg_22" r="0.913" cy="35.33" cx="50.347" fill="#FFFFFF"/>
     <circle id="svg_23" r="0.913" cy="35.33" cx="88.685" fill="#FFFFFF"/>
     <g id="svg_24">
      <defs transform="translate(1,3) ">
       <rect height="71.521" width="42.781" y="33.647" x="48.152" id="SVGID_2_"/>
       <linearGradient y2="1.000007" x2="0.500012" y1="0.000007" x1="0.500012" id="SVGID_1_">
        <stop stop-color="#5978BA" offset="0"/>
        <stop stop-color="#4E9DB8" offset="0.703"/>
        <stop stop-color="#379CC9" offset="1"/>
       </linearGradient>
      </defs>
      <clipPath transform="translate(1,3) " id="SVGID_3_">
       <use id="svg_25" xlink:href="#SVGID_2_"/>
      </clipPath>
     </g>
     <g id="svg_26">
      <path id="svg_27" d="m59.633,85.005c0,0.814 -0.66,1.474 -1.475,1.474l-4.305,0c-0.816,0 -1.477,-0.659 -1.477,-1.474l0,-4.306c0,-0.816 0.66,-1.477 1.477,-1.477l4.305,0c0.814,0 1.475,0.66 1.475,1.477l0,4.306z" fill="#B5DBAF"/>
      <path id="svg_28" d="m69.396,85.005c0,0.814 -0.662,1.474 -1.477,1.474l-4.303,0c-0.816,0 -1.477,-0.659 -1.477,-1.474l0,-4.306c0,-0.816 0.66,-1.477 1.477,-1.477l4.303,0c0.814,0 1.477,0.66 1.477,1.477l0,4.306z" fill="#F6A2A3"/>
      <path id="svg_29" d="m79.158,85.005c0,0.814 -0.662,1.474 -1.475,1.474l-4.305,0c-0.814,0 -1.479,-0.659 -1.479,-1.474l0,-4.306c0,-0.816 0.664,-1.477 1.479,-1.477l4.305,0c0.812,0 1.475,0.66 1.475,1.477l0,4.306z" fill="#67B8CB"/>
      <path id="svg_30" d="m88.92,85.005c0,0.814 -0.66,1.474 -1.475,1.474l-4.305,0c-0.816,0 -1.475,-0.659 -1.475,-1.474l0,-4.306c0,-0.816 0.658,-1.477 1.475,-1.477l4.305,0c0.814,0 1.475,0.66 1.475,1.477l0,4.306z" fill="#F5E554"/>
     </g>
     <path id="svg_31" d="m88.811,72.72c0,0.813 -0.658,1.473 -1.475,1.473l-33.264,0c-0.814,0 -1.477,-0.659 -1.477,-1.473l0,-1.674c0,-0.815 0.662,-1.476 1.477,-1.476l33.264,0c0.816,0 1.475,0.66 1.475,1.476l0,1.674z" stroke-miterlimit="10" stroke-width="0.5" stroke="#67B8CB" fill="none"/>
     <g id="svg_32">
      <circle id="svg_33" r="1.096" cy="71.42" cx="85.373" fill="#DBF0F5"/>
      <path id="svg_34" d="m87.355,73.415c-0.086,0.085 -0.25,0.061 -0.365,-0.056l-1.232,-1.232c-0.115,-0.114 -0.141,-0.277 -0.055,-0.363l0.109,-0.109c0.086,-0.087 0.25,-0.061 0.365,0.056l1.232,1.23c0.115,0.116 0.141,0.279 0.053,0.365l-0.107,0.109z" fill="#DBF0F5"/>
     </g>
     <g id="svg_35">
      <path id="svg_36" d="m57.957,101.483c0,0.662 -0.537,1.2 -1.201,1.2l-3.506,0c-0.664,0 -1.203,-0.538 -1.203,-1.2l0,-3.508c0,-0.663 0.539,-1.201 1.203,-1.201l3.506,0c0.664,0 1.201,0.538 1.201,1.201l0,3.508z" fill="#67B8CB"/>
      <path id="svg_37" d="m65.91,101.483c0,0.662 -0.541,1.2 -1.203,1.2l-3.506,0c-0.664,0 -1.201,-0.538 -1.201,-1.2l0,-3.508c0,-0.663 0.537,-1.201 1.201,-1.201l3.506,0c0.662,0 1.203,0.538 1.203,1.201l0,3.508z" fill="#F5E554"/>
      <path id="svg_38" d="m73.859,101.483c0,0.662 -0.539,1.2 -1.201,1.2l-3.506,0c-0.664,0 -1.203,-0.538 -1.203,-1.2l0,-3.508c0,-0.663 0.539,-1.201 1.203,-1.201l3.506,0c0.662,0 1.201,0.538 1.201,1.201l0,3.508z" fill="#B5DBAF"/>
      <path id="svg_39" d="m81.811,101.483c0,0.662 -0.539,1.2 -1.201,1.2l-3.506,0c-0.666,0 -1.201,-0.538 -1.201,-1.2l0,-3.508c0,-0.663 0.535,-1.201 1.201,-1.201l3.506,0c0.662,0 1.201,0.538 1.201,1.201l0,3.508z" fill="#D3D4E3"/>
      <path id="svg_40" d="m89.709,101.483c0,0.662 -0.539,1.2 -1.201,1.2l-3.506,0c-0.666,0 -1.203,-0.538 -1.203,-1.2l0,-3.508c0,-0.663 0.537,-1.201 1.203,-1.201l3.506,0c0.662,0 1.201,0.538 1.201,1.201l0,3.508z" fill="#F6A2A3"/>
     </g>
     <path id="svg_41" d="m75.463,113.35c0,0.892 -0.543,1.615 -1.213,1.615l-7.117,0c-0.668,0 -1.211,-0.724 -1.211,-1.615l0,-1.146c0,-0.893 0.543,-1.615 1.211,-1.615l7.117,0c0.67,0 1.213,0.723 1.213,1.615l0,1.146z" stroke-miterlimit="10" stroke-width="0.5" stroke="#B8B9BA" fill="none"/>
     <circle id="svg_42" r="0.658" cy="31.133" cx="76.672" fill="#B8B9BA"/>
     <circle id="svg_43" r="0.658" cy="31.133" cx="78.428" fill="#B8B9BA"/>
     <circle id="svg_44" r="0.885" cy="31.407" cx="84.734" fill="#B8B9BA"/>
    </g>
   </g>
  </g>
  <ellipse ry="4.5" rx="1" id="svg_50" cy="34.95697" cx="37.956512" opacity="0.5" stroke-width="1.5" stroke="#EDBF00" fill="none"/>
  <ellipse stroke="null" ry="55.000002" rx="49.500002" id="svg_53" cy="70.456973" cx="69.456516" stroke-width="1.5" fill="#EDBF00"/>
 </g>
</svg>