<svg width="136.914" height="136.914" xmlns="http://www.w3.org/2000/svg">

 <g>
  <title>background</title>
  <rect fill="none" id="canvas_background" height="402" width="582" y="-1" x="-1"/>
 </g>
 <g>
  <title>Layer 1</title>
  <g id="svg_1">
   <g id="svg_2">
    <g id="svg_3">
     <g id="svg_4">
      <g id="svg_5">
       <circle id="svg_6" r="63.333" cy="68.457" cx="68.456" fill="#2DB58E"/>
      </g>
     </g>
    </g>
   </g>
   <g id="svg_7">
    <g id="svg_8">
     <g id="svg_9">
      <path id="svg_10" d="m69.437,28.656c-22.37,0 -40.504,18.135 -40.504,40.504s18.134,40.504 40.504,40.504c22.369,0 40.504,-18.135 40.504,-40.504s-18.135,-40.504 -40.504,-40.504zm0,75.008c-19.057,0 -34.504,-15.448 -34.504,-34.504s15.447,-34.504 34.504,-34.504c19.056,0 34.504,15.448 34.504,34.504s-15.449,34.504 -34.504,34.504z" fill="#D35959"/>
     </g>
    </g>
    <g id="svg_11">
     <g id="svg_12">
      <path id="svg_13" d="m69.437,40.156c-16.019,0 -29.004,12.986 -29.004,29.004s12.985,29.004 29.004,29.004s29.003,-12.986 29.003,-29.004s-12.985,-29.004 -29.003,-29.004zm0,53.711c-13.646,0 -24.708,-11.062 -24.708,-24.707s11.062,-24.707 24.708,-24.707s24.707,11.062 24.707,24.707s-11.062,24.707 -24.707,24.707z" fill="#D35959"/>
     </g>
    </g>
    <g id="svg_14">
     <g id="svg_15">
      <path id="svg_16" d="m69.437,50.156c-10.496,0 -19.004,8.509 -19.004,19.004s8.508,19.004 19.004,19.004c10.495,0 19.004,-8.509 19.004,-19.004s-8.509,-19.004 -19.004,-19.004zm0,34.193c-8.389,0 -15.189,-6.8 -15.189,-15.188s6.801,-15.188 15.189,-15.188s15.188,6.8 15.188,15.188s-6.8,15.188 -15.188,15.188z" fill="#CD4F4F"/>
     </g>
    </g>
    <g id="svg_17">
     <g id="svg_18">
      <path id="svg_19" d="m69.437,75.523c-3.515,0 -6.363,-2.849 -6.363,-6.363s2.849,-6.363 6.363,-6.363c3.514,0 6.362,2.849 6.362,6.363s-2.849,6.363 -6.362,6.363z" fill="#C54342"/>
     </g>
    </g>
    <g id="svg_20">
     <g id="svg_21">
      <polygon id="svg_22" points="89.482,50.309 99.465,52.612 115.974,36.103 105.992,33.799     " fill="#C93435"/>
     </g>
    </g>
    <g id="svg_23">
     <g id="svg_24">
      <polygon id="svg_25" points="108.712,35.227 107.711,31.395 103.88,30.395 66.981,67.291 66.981,72.123 71.814,72.123           " fill="#E79E2D"/>
     </g>
     <g id="svg_26">
      <polygon id="svg_27" points="107.711,31.395 103.88,30.395 66.981,67.291 66.981,72.123     " fill="#F2BE3E"/>
     </g>
     <g id="svg_28">
      <polygon id="svg_29" points="108.707,35.354 104.693,34.388 103.749,30.397 107.763,31.364     " fill="#F9CA62"/>
     </g>
    </g>
    <g id="svg_30">
     <g id="svg_31">
      <polygon id="svg_32" points="76.983,47.475 86.965,49.778 103.475,33.269 93.492,30.965     " fill="#C93435"/>
     </g>
    </g>
   </g>
  </g>
  <ellipse ry="41" rx="45" id="svg_38" cy="65.45697" cx="74.957001" stroke-width="1.5" fill="#2DB58E"/>
  <ellipse stroke="null" ry="48.000001" rx="53.000004" id="svg_41" cy="69.456971" cx="75.957" stroke-width="1.5" fill="#2DB58E"/>
 </g>
</svg>